<svg width="298" height="54" viewBox="0 0 298 54" fill="none" xmlns="http://www.w3.org/2000/svg">
<rect width="298" height="54" rx="25" fill="url(#paint0_linear_126_14)"/>
<path d="M97.6719 29.4453L99.9375 20.625H101.125L100.992 22.8984L98.5703 32H97.3359L97.6719 29.4453ZM95.9766 20.625L97.8125 29.375L97.9766 32H96.6641L94.0312 20.625H95.9766ZM103.695 29.3516L105.508 20.625H107.461L104.828 32H103.516L103.695 29.3516ZM101.586 20.625L103.828 29.4688L104.156 32H102.922L100.539 22.8984L100.414 20.625H101.586ZM113 22.1406L109.602 32H107.547L111.828 20.625H113.141L113 22.1406ZM115.844 32L112.438 22.1406L112.289 20.625H113.609L117.906 32H115.844ZM115.68 27.7812V29.3359H109.492V27.7812H115.68ZM122.875 20.625V32H120.93V20.625H122.875ZM126.445 20.625V22.1875H117.391V20.625H126.445ZM134.445 28.2969H136.398C136.336 29.0417 136.128 29.7057 135.773 30.2891C135.419 30.8672 134.922 31.3229 134.281 31.6562C133.641 31.9896 132.862 32.1562 131.945 32.1562C131.242 32.1562 130.609 32.0312 130.047 31.7812C129.484 31.526 129.003 31.1667 128.602 30.7031C128.201 30.2344 127.893 29.6693 127.68 29.0078C127.471 28.3464 127.367 27.6068 127.367 26.7891V25.8438C127.367 25.026 127.474 24.2865 127.688 23.625C127.906 22.9635 128.219 22.3984 128.625 21.9297C129.031 21.4557 129.518 21.0938 130.086 20.8438C130.659 20.5938 131.302 20.4688 132.016 20.4688C132.922 20.4688 133.688 20.6354 134.312 20.9688C134.938 21.3021 135.422 21.763 135.766 22.3516C136.115 22.9401 136.328 23.6146 136.406 24.375H134.453C134.401 23.8854 134.286 23.4661 134.109 23.1172C133.938 22.7682 133.682 22.5026 133.344 22.3203C133.005 22.1328 132.562 22.0391 132.016 22.0391C131.568 22.0391 131.177 22.1224 130.844 22.2891C130.51 22.4557 130.232 22.7005 130.008 23.0234C129.784 23.3464 129.615 23.7448 129.5 24.2188C129.391 24.6875 129.336 25.224 129.336 25.8281V26.7891C129.336 27.362 129.385 27.8828 129.484 28.3516C129.589 28.8151 129.745 29.2135 129.953 29.5469C130.167 29.8802 130.438 30.138 130.766 30.3203C131.094 30.5026 131.487 30.5938 131.945 30.5938C132.503 30.5938 132.953 30.5052 133.297 30.3281C133.646 30.151 133.909 29.8932 134.086 29.5547C134.268 29.2109 134.388 28.7917 134.445 28.2969ZM145.695 25.375V26.9297H139.656V25.375H145.695ZM140.141 20.625V32H138.18V20.625H140.141ZM147.203 20.625V32H145.25V20.625H147.203ZM162.594 26V26.625C162.594 27.4844 162.482 28.2552 162.258 28.9375C162.034 29.6198 161.714 30.2005 161.297 30.6797C160.885 31.1589 160.391 31.526 159.812 31.7812C159.234 32.0312 158.594 32.1562 157.891 32.1562C157.193 32.1562 156.555 32.0312 155.977 31.7812C155.404 31.526 154.906 31.1589 154.484 30.6797C154.062 30.2005 153.734 29.6198 153.5 28.9375C153.271 28.2552 153.156 27.4844 153.156 26.625V26C153.156 25.1406 153.271 24.3724 153.5 23.6953C153.729 23.013 154.052 22.4323 154.469 21.9531C154.891 21.4688 155.388 21.1016 155.961 20.8516C156.539 20.5964 157.177 20.4688 157.875 20.4688C158.578 20.4688 159.219 20.5964 159.797 20.8516C160.375 21.1016 160.872 21.4688 161.289 21.9531C161.706 22.4323 162.026 23.013 162.25 23.6953C162.479 24.3724 162.594 25.1406 162.594 26ZM160.633 26.625V25.9844C160.633 25.349 160.57 24.7891 160.445 24.3047C160.326 23.8151 160.146 23.4062 159.906 23.0781C159.672 22.7448 159.383 22.4948 159.039 22.3281C158.695 22.1562 158.307 22.0703 157.875 22.0703C157.443 22.0703 157.057 22.1562 156.719 22.3281C156.38 22.4948 156.091 22.7448 155.852 23.0781C155.617 23.4062 155.438 23.8151 155.312 24.3047C155.188 24.7891 155.125 25.349 155.125 25.9844V26.625C155.125 27.2604 155.188 27.8229 155.312 28.3125C155.438 28.8021 155.62 29.2161 155.859 29.5547C156.104 29.888 156.396 30.1406 156.734 30.3125C157.073 30.4792 157.458 30.5625 157.891 30.5625C158.328 30.5625 158.716 30.4792 159.055 30.3125C159.393 30.1406 159.68 29.888 159.914 29.5547C160.148 29.2161 160.326 28.8021 160.445 28.3125C160.57 27.8229 160.633 27.2604 160.633 26.625ZM173.578 20.625V32H171.617L166.516 23.8516V32H164.555V20.625H166.516L171.633 28.7891V20.625H173.578ZM183.039 30.4453V32H177.328V30.4453H183.039ZM177.875 20.625V32H175.914V20.625H177.875ZM186.648 20.625V32H184.688V20.625H186.648ZM198.109 20.625V32H196.148L191.047 23.8516V32H189.086V20.625H191.047L196.164 28.7891V20.625H198.109ZM207.891 30.4453V32H201.852V30.4453H207.891ZM202.406 20.625V32H200.445V20.625H202.406ZM207.102 25.375V26.9062H201.852V25.375H207.102ZM207.852 20.625V22.1875H201.852V20.625H207.852Z" fill="white"/>
<defs>
<linearGradient id="paint0_linear_126_14" x1="-13.2025" y1="8" x2="48.1193" y2="158.41" gradientUnits="userSpaceOnUse">
<stop stop-color="#F9804B"/>
<stop offset="1" stop-color="#FE9013"/>
</linearGradient>
</defs>
</svg>
