<svg width="298" height="54" viewBox="0 0 298 54" fill="none" xmlns="http://www.w3.org/2000/svg">
<rect width="298" height="54" rx="25" fill="#FE9013"/>
<path d="M69.2109 28.2969C69.0964 29.5104 68.6484 30.4583 67.8672 31.1406C67.0859 31.8177 66.0469 32.1562 64.75 32.1562C63.8438 32.1562 63.0443 31.9427 62.3516 31.5156C61.6641 31.0833 61.1328 30.4714 60.7578 29.6797C60.3828 28.888 60.1875 27.9688 60.1719 26.9219V25.8594C60.1719 24.7865 60.362 23.8411 60.7422 23.0234C61.1224 22.2057 61.6667 21.5755 62.375 21.1328C63.0885 20.6901 63.9115 20.4688 64.8438 20.4688C66.099 20.4688 67.1094 20.8099 67.875 21.4922C68.6406 22.1745 69.0859 23.138 69.2109 24.3828H67.2422C67.1484 23.5651 66.9089 22.9766 66.5234 22.6172C66.1432 22.2526 65.5833 22.0703 64.8438 22.0703C63.9844 22.0703 63.3229 22.3854 62.8594 23.0156C62.401 23.6406 62.1667 24.5599 62.1562 25.7734V26.7812C62.1562 28.0104 62.375 28.9479 62.8125 29.5938C63.2552 30.2396 63.901 30.5625 64.75 30.5625C65.526 30.5625 66.1094 30.388 66.5 30.0391C66.8906 29.6901 67.138 29.1094 67.2422 28.2969H69.2109ZM80.0156 32H78.0469V26.9453H72.9609V32H70.9844V20.625H72.9609V25.3594H78.0469V20.625H80.0156V32ZM91.4375 26.6094C91.4375 27.724 91.2448 28.7031 90.8594 29.5469C90.474 30.3854 89.9219 31.0312 89.2031 31.4844C88.4896 31.9323 87.6667 32.1562 86.7344 32.1562C85.8125 32.1562 84.9896 31.9323 84.2656 31.4844C83.5469 31.0312 82.9896 30.388 82.5938 29.5547C82.2031 28.7214 82.0052 27.7604 82 26.6719V26.0312C82 24.9219 82.1953 23.9427 82.5859 23.0938C82.9818 22.2448 83.5365 21.5964 84.25 21.1484C84.9688 20.6953 85.7917 20.4688 86.7188 20.4688C87.6458 20.4688 88.4661 20.6927 89.1797 21.1406C89.8984 21.5833 90.4531 22.224 90.8438 23.0625C91.2344 23.8958 91.4323 24.8672 91.4375 25.9766V26.6094ZM89.4609 26.0156C89.4609 24.7552 89.2214 23.7891 88.7422 23.1172C88.2682 22.4453 87.5938 22.1094 86.7188 22.1094C85.8646 22.1094 85.1953 22.4453 84.7109 23.1172C84.2318 23.7839 83.987 24.7292 83.9766 25.9531V26.6094C83.9766 27.8594 84.2188 28.8255 84.7031 29.5078C85.1927 30.1901 85.8698 30.5312 86.7344 30.5312C87.6094 30.5312 88.2812 30.1979 88.75 29.5312C89.224 28.8646 89.4609 27.8906 89.4609 26.6094V26.0156ZM102.484 26.6094C102.484 27.724 102.292 28.7031 101.906 29.5469C101.521 30.3854 100.969 31.0312 100.25 31.4844C99.5365 31.9323 98.7135 32.1562 97.7812 32.1562C96.8594 32.1562 96.0365 31.9323 95.3125 31.4844C94.5938 31.0312 94.0365 30.388 93.6406 29.5547C93.25 28.7214 93.0521 27.7604 93.0469 26.6719V26.0312C93.0469 24.9219 93.2422 23.9427 93.6328 23.0938C94.0286 22.2448 94.5833 21.5964 95.2969 21.1484C96.0156 20.6953 96.8385 20.4688 97.7656 20.4688C98.6927 20.4688 99.513 20.6927 100.227 21.1406C100.945 21.5833 101.5 22.224 101.891 23.0625C102.281 23.8958 102.479 24.8672 102.484 25.9766V26.6094ZM100.508 26.0156C100.508 24.7552 100.268 23.7891 99.7891 23.1172C99.3151 22.4453 98.6406 22.1094 97.7656 22.1094C96.9115 22.1094 96.2422 22.4453 95.7578 23.1172C95.2786 23.7839 95.0339 24.7292 95.0234 25.9531V26.6094C95.0234 27.8594 95.2656 28.8255 95.75 29.5078C96.2396 30.1901 96.9167 30.5312 97.7812 30.5312C98.6562 30.5312 99.3281 30.1979 99.7969 29.5312C100.271 28.8646 100.508 27.8906 100.508 26.6094V26.0156ZM110.398 29.0703C110.398 28.5703 110.221 28.1849 109.867 27.9141C109.518 27.6432 108.885 27.3698 107.969 27.0938C107.052 26.8177 106.323 26.5104 105.781 26.1719C104.745 25.5208 104.227 24.6719 104.227 23.625C104.227 22.7083 104.599 21.9531 105.344 21.3594C106.094 20.7656 107.065 20.4688 108.258 20.4688C109.049 20.4688 109.755 20.6146 110.375 20.9062C110.995 21.1979 111.482 21.6146 111.836 22.1562C112.19 22.6927 112.367 23.2891 112.367 23.9453H110.398C110.398 23.3516 110.211 22.888 109.836 22.5547C109.466 22.2161 108.935 22.0469 108.242 22.0469C107.596 22.0469 107.094 22.1849 106.734 22.4609C106.38 22.737 106.203 23.1224 106.203 23.6172C106.203 24.0339 106.396 24.3828 106.781 24.6641C107.167 24.9401 107.802 25.2109 108.688 25.4766C109.573 25.737 110.284 26.0365 110.82 26.375C111.357 26.7083 111.75 27.0938 112 27.5312C112.25 27.9635 112.375 28.4714 112.375 29.0547C112.375 30.0026 112.01 30.7578 111.281 31.3203C110.557 31.8776 109.573 32.1562 108.328 32.1562C107.505 32.1562 106.747 32.0052 106.055 31.7031C105.367 31.3958 104.831 30.974 104.445 30.4375C104.065 29.901 103.875 29.276 103.875 28.5625H105.852C105.852 29.2083 106.065 29.7083 106.492 30.0625C106.919 30.4167 107.531 30.5938 108.328 30.5938C109.016 30.5938 109.531 30.4557 109.875 30.1797C110.224 29.8984 110.398 29.5286 110.398 29.0703ZM120.758 26.9219H116.086V30.4219H121.547V32H114.109V20.625H121.492V22.2188H116.086V25.3594H120.758V26.9219ZM130.852 26.0156L133.469 20.625H135.656L131.844 27.8125V32H129.859V27.8125L126.039 20.625H128.234L130.852 26.0156ZM145.734 26.6094C145.734 27.724 145.542 28.7031 145.156 29.5469C144.771 30.3854 144.219 31.0312 143.5 31.4844C142.786 31.9323 141.964 32.1562 141.031 32.1562C140.109 32.1562 139.286 31.9323 138.562 31.4844C137.844 31.0312 137.286 30.388 136.891 29.5547C136.5 28.7214 136.302 27.7604 136.297 26.6719V26.0312C136.297 24.9219 136.492 23.9427 136.883 23.0938C137.279 22.2448 137.833 21.5964 138.547 21.1484C139.266 20.6953 140.089 20.4688 141.016 20.4688C141.943 20.4688 142.763 20.6927 143.477 21.1406C144.195 21.5833 144.75 22.224 145.141 23.0625C145.531 23.8958 145.729 24.8672 145.734 25.9766V26.6094ZM143.758 26.0156C143.758 24.7552 143.518 23.7891 143.039 23.1172C142.565 22.4453 141.891 22.1094 141.016 22.1094C140.161 22.1094 139.492 22.4453 139.008 23.1172C138.529 23.7839 138.284 24.7292 138.273 25.9531V26.6094C138.273 27.8594 138.516 28.8255 139 29.5078C139.49 30.1901 140.167 30.5312 141.031 30.5312C141.906 30.5312 142.578 30.1979 143.047 29.5312C143.521 28.8646 143.758 27.8906 143.758 26.6094V26.0156ZM156.023 20.625V28.2266C156.023 29.4349 155.635 30.3932 154.859 31.1016C154.089 31.8047 153.06 32.1562 151.773 32.1562C150.471 32.1562 149.438 31.8099 148.672 31.1172C147.906 30.4193 147.523 29.4531 147.523 28.2188V20.625H149.492V28.2344C149.492 28.9948 149.685 29.5755 150.07 29.9766C150.456 30.3776 151.023 30.5781 151.773 30.5781C153.294 30.5781 154.055 29.776 154.055 28.1719V20.625H156.023ZM162.32 27.6172H160.117V32H158.141V20.625H162.141C163.453 20.625 164.466 20.9193 165.18 21.5078C165.893 22.0964 166.25 22.9479 166.25 24.0625C166.25 24.8229 166.065 25.4609 165.695 25.9766C165.331 26.487 164.82 26.8802 164.164 27.1562L166.719 31.8984V32H164.602L162.32 27.6172ZM160.117 26.0312H162.148C162.815 26.0312 163.336 25.8646 163.711 25.5312C164.086 25.1927 164.273 24.7318 164.273 24.1484C164.273 23.5391 164.099 23.0677 163.75 22.7344C163.406 22.401 162.891 22.2292 162.203 22.2188H160.117V26.0312ZM178.664 27.1797H174.086V32H172.109V20.625H179.336V22.2188H174.086V25.6016H178.664V27.1797ZM185.773 29.3516H181.367L180.445 32H178.391L182.688 20.625H184.461L188.766 32H186.703L185.773 29.3516ZM181.922 27.7578H185.219L183.57 23.0391L181.922 27.7578ZM193.461 29.5234L196.352 20.625H198.523L194.43 32H192.516L188.438 20.625H190.602L193.461 29.5234ZM208.781 26.6094C208.781 27.724 208.589 28.7031 208.203 29.5469C207.818 30.3854 207.266 31.0312 206.547 31.4844C205.833 31.9323 205.01 32.1562 204.078 32.1562C203.156 32.1562 202.333 31.9323 201.609 31.4844C200.891 31.0312 200.333 30.388 199.938 29.5547C199.547 28.7214 199.349 27.7604 199.344 26.6719V26.0312C199.344 24.9219 199.539 23.9427 199.93 23.0938C200.326 22.2448 200.88 21.5964 201.594 21.1484C202.312 20.6953 203.135 20.4688 204.062 20.4688C204.99 20.4688 205.81 20.6927 206.523 21.1406C207.242 21.5833 207.797 22.224 208.188 23.0625C208.578 23.8958 208.776 24.8672 208.781 25.9766V26.6094ZM206.805 26.0156C206.805 24.7552 206.565 23.7891 206.086 23.1172C205.612 22.4453 204.938 22.1094 204.062 22.1094C203.208 22.1094 202.539 22.4453 202.055 23.1172C201.576 23.7839 201.331 24.7292 201.32 25.9531V26.6094C201.32 27.8594 201.562 28.8255 202.047 29.5078C202.536 30.1901 203.214 30.5312 204.078 30.5312C204.953 30.5312 205.625 30.1979 206.094 29.5312C206.568 28.8646 206.805 27.8906 206.805 26.6094V26.0156ZM214.93 27.6172H212.727V32H210.75V20.625H214.75C216.062 20.625 217.076 20.9193 217.789 21.5078C218.503 22.0964 218.859 22.9479 218.859 24.0625C218.859 24.8229 218.674 25.4609 218.305 25.9766C217.94 26.487 217.43 26.8802 216.773 27.1562L219.328 31.8984V32H217.211L214.93 27.6172ZM212.727 26.0312H214.758C215.424 26.0312 215.945 25.8646 216.32 25.5312C216.695 25.1927 216.883 24.7318 216.883 24.1484C216.883 23.5391 216.708 23.0677 216.359 22.7344C216.016 22.401 215.5 22.2292 214.812 22.2188H212.727V26.0312ZM222.82 32H220.852V20.625H222.82V32ZM233.234 22.2188H229.688V32H227.727V22.2188H224.211V20.625H233.234V22.2188ZM241.383 26.9219H236.711V30.4219H242.172V32H234.734V20.625H242.117V22.2188H236.711V25.3594H241.383V26.9219Z" fill="white"/>
</svg>
